<mxfile host="65bd71144e">
    <diagram id="5LOFYOSXFRESEg3_u533" name="Page-1">
        <mxGraphModel dx="1029" dy="627" grid="1" gridSize="10" guides="1" tooltips="1" connect="1" arrows="1" fold="1" page="1" pageScale="1" pageWidth="850" pageHeight="1100" math="0" shadow="0">
            <root>
                <mxCell id="0"/>
                <mxCell id="1" parent="0"/>
                <mxCell id="2" value="" style="rounded=1;whiteSpace=wrap;html=1;" vertex="1" parent="1">
                    <mxGeometry x="250" y="100" width="540" height="310" as="geometry"/>
                </mxCell>
                <mxCell id="5" value="Manager Service" style="rounded=1;whiteSpace=wrap;html=1;fontSize=13;fontStyle=0;fontColor=#FF6666;" vertex="1" parent="1">
                    <mxGeometry x="290" y="130" width="170" height="30" as="geometry"/>
                </mxCell>
                <mxCell id="6" value="Geoserver&amp;nbsp;(ingress)" style="rounded=0;whiteSpace=wrap;html=1;fontSize=17;fontColor=#009999;" vertex="1" parent="1">
                    <mxGeometry x="410" y="30" width="240" height="40" as="geometry"/>
                </mxCell>
                <mxCell id="7" value="Worker Service" style="rounded=1;whiteSpace=wrap;html=1;fontSize=13;fontStyle=0;fontColor=#FF6666;" vertex="1" parent="1">
                    <mxGeometry x="550" y="130" width="170" height="30" as="geometry"/>
                </mxCell>
                <mxCell id="8" value="" style="endArrow=none;html=1;fontSize=13;fontColor=#FF6666;exitX=0.5;exitY=0;exitDx=0;exitDy=0;entryX=0.5;entryY=1;entryDx=0;entryDy=0;" edge="1" parent="1" source="7" target="6">
                    <mxGeometry width="50" height="50" relative="1" as="geometry">
                        <mxPoint x="400" y="280" as="sourcePoint"/>
                        <mxPoint x="530" y="70" as="targetPoint"/>
                    </mxGeometry>
                </mxCell>
                <mxCell id="10" value="" style="endArrow=none;html=1;fontSize=13;fontColor=#FF6666;exitX=0.5;exitY=0;exitDx=0;exitDy=0;entryX=0.5;entryY=1;entryDx=0;entryDy=0;" edge="1" parent="1" source="5" target="6">
                    <mxGeometry width="50" height="50" relative="1" as="geometry">
                        <mxPoint x="470" y="120" as="sourcePoint"/>
                        <mxPoint x="520" y="70" as="targetPoint"/>
                    </mxGeometry>
                </mxCell>
            </root>
        </mxGraphModel>
    </diagram>
</mxfile>